<svg height="128" width="128" xmlns="http://www.w3.org/2000/svg" xmlns:xlink="http://www.w3.org/1999/xlink"><linearGradient id="a" gradientUnits="userSpaceOnUse" x1="60.45395621916" x2="60.45395621916" y1="15.09452281732" y2="115.996519399"><stop offset="0" stop-color="#fff"/><stop offset=".42447853" stop-color="#fff" stop-opacity=".235294"/><stop offset=".82089913" stop-color="#fff" stop-opacity=".156863"/><stop offset="1" stop-color="#fff" stop-opacity=".392157"/></linearGradient><radialGradient id="b" cx="99.157013" cy="186.17059" gradientTransform="matrix(.6869404 0 0 -.21461693 -4.02174 148.48403)" gradientUnits="userSpaceOnUse" r="62.769119"><stop offset="0" stop-color="#3d3d3d"/><stop offset=".5" stop-color="#686868" stop-opacity=".498039"/><stop offset="1" stop-color="#686868" stop-opacity="0"/></radialGradient><linearGradient id="c" gradientUnits="userSpaceOnUse" x1="248.66951" x2="248.66951" y1="21.499994" y2="125.24139"><stop offset="0" stop-color="#43d6b5"/><stop offset="1" stop-color="#28bca3"/></linearGradient><path d="m107.21186 108.52868c.005-7.44114-19.301247-13.474207-43.118643-13.474207s-43.123773 6.033067-43.118643 13.474207c-.0051 7.44114 19.801244 13.47421 43.61864 13.47421s42.623776-6.03307 42.618646-13.47421z" fill="url(#b)"/><path d="m248.66951 21.499995c-28.69182 0-52.00002 23.308191-52.00002 52 0 28.691805 23.3082 52.000005 52.00002 52.000005 28.69178 0 52.00002-23.3082 51.99998-52.000005 0-28.691809-23.3082-52-51.99998-52z" fill="url(#c)" transform="translate(-184.16949 -7.999998)"/><path d="m64.499997 13.499997c28.691812 0 52.000003 23.308189 52.000003 52.000004 0 28.691808-23.308191 52.000009-52.000003 51.999999-28.691807 0-52.000017-23.308191-51.999997-51.999999 0-28.691815 23.30819-52.000004 51.999997-52.000004z" fill="none" opacity=".5" stroke="#007367" stroke-linecap="round" stroke-linejoin="round"/><path d="m115.5 65.500001c0 28.166516-22.833502 50.999989-51.000026 50.999989-28.166487 0-50.999973-22.833473-50.999973-50.999989 0-28.166517 22.833486-50.999991 50.999973-50.999991 28.166524 0 51.000026 22.833474 51.000026 50.999991z" fill="none" opacity=".5" stroke="url(#a)" stroke-linecap="round" stroke-linejoin="round"/><path d="m64 36.996094c-11.909732 0-21.625 9.317795-21.625 20.832031 0 11.514237 9.715383 20.830078 21.625 20.830078 11.909618 0 21.625-9.315841 21.625-20.830078 0-11.514236-9.715269-20.832031-21.625-20.832031zm-7.558594 42.976562c-9.676157 0-18.04983 5.699183-22.259765 14.033203a1.0030908 1.0030908 0 0 0 .162109 1.138672c7.416546 7.910739 17.960596 12.859379 29.65625 12.859379s22.239704-4.94864 29.65625-12.859379a1.0030908 1.0030908 0 0 0 .162109-1.138672c-4.209935-8.33402-12.583607-14.033203-22.259765-14.033203z" fill="#007367" opacity=".05"/><path d="m64 38c-11.388492 0-20.620689 8.877113-20.620689 19.827586 0 10.950474 9.232197 19.827587 20.620689 19.827587 11.388493 0 20.620688-8.877113 20.620688-19.827587 0-10.950473-9.232197-19.827586-20.620688-19.827586zm-7.559267 42.976293c-9.282797 0-17.312149 5.461239-21.364225 13.48276 7.235092 7.717197 17.510453 12.540947 28.923492 12.540947s21.6884-4.82375 28.923492-12.540947c-4.052076-8.021521-12.081427-13.48276-21.364225-13.48276z" fill="#007367" opacity=".15"/><path d="m64 37c-11.388492 0-20.620689 8.877113-20.620689 19.827586 0 10.950474 9.232197 19.827587 20.620689 19.827587 11.388493 0 20.620688-8.877113 20.620688-19.827587 0-10.950473-9.232197-19.827586-20.620688-19.827586zm-7.559267 42.976293c-9.282797 0-17.312149 5.461239-21.364225 13.48276 7.235092 7.717197 17.510453 12.540947 28.923492 12.540947s21.6884-4.82375 28.923492-12.540947c-4.052076-8.021521-12.081427-13.48276-21.364225-13.48276z" fill="#fff"/></svg>